<?xml version="1.0" standalone="no"?>
<!DOCTYPE svg PUBLIC "-//W3C//DTD SVG 20010904//EN"
 "http://www.w3.org/TR/2001/REC-SVG-20010904/DTD/svg10.dtd">
<svg version="1.0" xmlns="http://www.w3.org/2000/svg"
 width="1024.000000pt" height="1024.000000pt" viewBox="0 0 1024.000000 1024.000000"
 preserveAspectRatio="xMidYMid meet">
<metadata>
Created by potrace 1.14, written by Peter Selinger 2001-2017
</metadata>
<g transform="translate(0.000000,1024.000000) scale(0.100000,-0.100000)"
fill="#000000" stroke="none">
<path d="M5271 7554 c0 -11 3 -14 6 -6 3 7 2 16 -1 19 -3 4 -6 -2 -5 -13z"/>
<path d="M5885 7560 c-3 -6 1 -7 9 -4 18 7 21 14 7 14 -6 0 -13 -4 -16 -10z"/>
<path d="M6310 7560 c0 -5 5 -10 10 -10 6 0 10 5 10 10 0 6 -4 10 -10 10 -5 0
-10 -4 -10 -10z"/>
<path d="M5675 7550 c-3 -5 -1 -10 4 -10 6 0 11 5 11 10 0 6 -2 10 -4 10 -3 0
-8 -4 -11 -10z"/>
<path d="M5703 7545 c0 -8 4 -12 9 -9 5 3 6 10 3 15 -9 13 -12 11 -12 -6z"/>
<path d="M5307 7538 c-2 -7 -1 -22 3 -33 6 -16 8 -13 7 13 0 35 -2 39 -10 20z"/>
<path d="M5106 7517 c3 -10 9 -15 12 -12 3 3 0 11 -7 18 -10 9 -11 8 -5 -6z"/>
<path d="M5772 7521 c2 -7 7 -12 11 -12 12 1 9 15 -3 20 -7 2 -11 -2 -8 -8z"/>
<path d="M5580 7511 c0 -5 5 -13 10 -16 6 -3 10 -2 10 4 0 5 -4 13 -10 16 -5
3 -10 2 -10 -4z"/>
<path d="M5684 7508 c-3 -4 2 -8 10 -8 8 0 17 4 20 8 3 5 -2 9 -10 9 -8 0 -17
-4 -20 -9z"/>
<path d="M5840 7510 c0 -5 5 -10 10 -10 6 0 10 5 10 10 0 6 -4 10 -10 10 -5 0
-10 -4 -10 -10z"/>
<path d="M6128 7513 c6 -2 18 -2 25 0 6 3 1 5 -13 5 -14 0 -19 -2 -12 -5z"/>
<path d="M5195 7500 c-3 -5 1 -10 10 -10 9 0 13 5 10 10 -3 6 -8 10 -10 10 -2
0 -7 -4 -10 -10z"/>
<path d="M5875 7500 c3 -5 8 -10 11 -10 2 0 4 5 4 10 0 6 -5 10 -11 10 -5 0
-7 -4 -4 -10z"/>
<path d="M5986 7499 c8 -14 -14 -29 -42 -29 -18 0 -20 -5 -16 -26 3 -19 1 -25
-7 -20 -6 4 -9 11 -6 16 3 5 1 11 -4 15 -6 3 -7 13 -4 22 5 11 3 14 -6 9 -7
-5 -10 -17 -8 -28 5 -16 3 -17 -11 -6 -13 11 -14 11 -8 -1 7 -10 3 -12 -15 -6
-13 4 -28 14 -32 22 -7 11 -12 12 -23 2 -10 -8 -14 -8 -14 0 0 11 11 14 45 12
18 -1 19 -1 3 9 -12 7 -24 8 -37 1 -10 -6 -21 -7 -25 -3 -4 3 -11 0 -17 -8 -8
-13 -10 -13 -19 0 -7 11 -12 12 -21 3 -18 -18 -3 -46 21 -38 11 4 20 2 20 -4
0 -6 7 -8 15 -5 8 3 17 -1 20 -9 5 -11 15 -13 52 -6 50 10 76 -3 86 -42 6 -21
-8 -26 -17 -6 -3 6 -4 1 -3 -13 2 -30 -29 -50 -77 -50 -38 0 -62 34 -53 72 4
13 2 30 -3 38 -9 13 -10 13 -10 0 0 -12 -2 -13 -9 -1 -5 7 -14 10 -20 7 -6 -4
-17 -4 -23 1 -19 11 -38 12 -38 2 0 -5 -5 -9 -11 -9 -5 0 -7 4 -4 10 3 6 -1 7
-9 4 -10 -4 -16 -1 -16 7 0 8 -5 6 -13 -6 -10 -13 -16 -15 -21 -6 -4 7 2 20
16 31 21 17 22 18 3 17 -11 -1 -23 -8 -26 -16 -3 -8 -15 -16 -28 -18 -13 -2
-20 1 -16 7 3 5 1 10 -4 10 -6 0 -11 -4 -11 -10 0 -5 -7 -10 -15 -10 -8 0 -15
-4 -15 -10 0 -5 -7 -10 -15 -10 -8 0 -15 -7 -15 -15 0 -8 -4 -15 -10 -15 -5 0
-7 -8 -4 -17 5 -17 5 -17 -6 -1 -8 13 -8 23 0 37 13 25 13 31 0 31 -5 0 -10
-6 -10 -13 0 -7 -7 -22 -16 -33 -14 -18 -15 -18 -4 4 9 18 8 22 -4 22 -9 0
-13 -6 -10 -13 2 -7 -2 -21 -11 -32 -12 -16 -14 -17 -9 -2 4 11 1 17 -7 17
-11 0 -11 3 1 10 12 8 10 10 -8 10 -19 0 -22 -4 -17 -20 8 -26 1 -25 -28 4
l-23 23 -17 -28 c-16 -28 -11 -39 9 -20 5 6 17 4 29 -6 18 -14 18 -15 1 -9
-10 3 -25 1 -32 -5 -8 -6 -14 -8 -14 -5 0 4 -9 2 -21 -4 -20 -11 -20 -11 -4
14 20 30 14 56 -12 56 -15 0 -16 2 -3 10 13 8 12 10 -2 10 -22 0 -22 -9 -3
-34 10 -13 15 -15 15 -6 0 7 3 11 6 7 3 -3 3 -11 -1 -17 -5 -8 -10 -8 -20 0
-9 8 -17 7 -27 -2 -22 -21 -36 -19 -31 3 5 16 8 18 14 7 10 -15 10 -14 13 25
1 16 -3 27 -11 27 -7 0 -13 -7 -13 -16 0 -10 -6 -14 -14 -11 -8 3 -22 0 -32
-8 -17 -12 -17 -16 -4 -40 8 -15 23 -37 35 -50 11 -12 21 -26 22 -31 2 -5 20
-49 40 -99 l38 -90 0 -175 c0 -188 -15 -273 -67 -386 l-23 -49 -53 0 c-30 0
-56 -3 -59 -7 -14 -25 -31 2 -69 111 -59 168 -75 389 -38 520 16 55 71 173
103 221 22 31 25 71 6 64 -7 -3 -16 -17 -19 -30 -4 -16 -13 -24 -24 -23 -9 2
-27 -3 -40 -10 -18 -10 -26 -10 -38 0 -8 6 -17 9 -20 6 -7 -6 -44 24 -44 35 0
5 15 8 34 8 19 0 37 4 40 9 10 15 -115 1 -131 -14 -8 -8 -18 -15 -23 -15 -5 0
-15 -3 -24 -6 -9 -4 -25 5 -40 21 -14 16 -27 22 -31 15 -3 -5 -2 -10 3 -10 10
0 9 -22 -3 -58 -6 -17 -12 -21 -27 -16 -15 4 -19 2 -16 -7 5 -14 31 -17 58 -6
16 7 58 -19 47 -29 -3 -4 -13 1 -22 10 -21 21 -38 11 -30 -17 6 -21 6 -22 -9
-3 -9 11 -16 16 -16 12 0 -4 -17 3 -37 15 -20 13 -33 17 -29 11 4 -7 2 -12 -3
-12 -6 0 -11 -11 -11 -25 0 -19 5 -25 21 -25 19 0 19 1 5 16 -16 16 -13 34 5
34 5 0 9 -8 7 -17 -2 -10 3 -17 10 -16 24 5 12 -17 -13 -23 -14 -3 -25 -7 -25
-8 0 -1 18 -57 41 -126 43 -133 109 -380 109 -407 0 -10 -25 20 -56 65 -73
107 -267 304 -292 296 -13 -5 -14 -4 -4 4 11 7 3 18 -34 48 -26 22 -68 57 -93
79 -24 22 -41 34 -37 28 4 -7 2 -13 -4 -13 -6 0 -8 -5 -5 -11 4 -6 9 -8 12 -5
10 10 43 -15 43 -33 0 -24 11 -33 26 -20 8 7 14 6 20 -2 4 -7 3 -9 -4 -5 -6 3
-13 2 -16 -3 -3 -5 4 -11 15 -14 13 -4 18 -10 14 -17 -5 -7 -10 -8 -14 -3 -3
6 -15 15 -27 21 -26 14 -70 -7 -66 -31 2 -9 -2 -17 -8 -17 -5 0 -10 4 -10 9 0
6 -9 9 -19 8 -15 -1 -17 -4 -9 -14 7 -9 7 -13 0 -13 -5 0 -8 -9 -5 -20 3 -11
1 -20 -5 -20 -13 0 -42 -28 -42 -41 0 -5 9 -9 20 -9 11 0 20 7 20 16 0 9 5 12
12 8 8 -5 5 -12 -8 -23 -26 -21 -29 -32 -12 -42 10 -7 10 -9 1 -9 -7 0 -13 -7
-13 -16 0 -8 -5 -12 -11 -8 -7 4 -7 10 -1 16 12 12 -5 58 -20 58 -5 0 -7 4 -4
9 3 5 -1 11 -9 15 -9 3 -13 14 -11 28 3 13 5 27 5 31 1 5 6 5 13 1 7 -4 8 -3
4 5 -5 8 -14 5 -31 -11 -17 -17 -21 -26 -13 -35 6 -7 7 -13 2 -13 -5 0 0 -7
10 -15 11 -8 16 -18 12 -22 -4 -4 -11 -2 -15 5 -4 7 -21 15 -37 18 -16 3 -37
15 -46 27 -15 20 -19 20 -32 7 -13 -13 -13 -19 -1 -40 13 -24 14 -24 12 -2 -1
12 -6 22 -12 22 -5 0 -3 5 5 10 11 7 17 5 22 -8 12 -29 9 -52 -7 -52 -8 0 -20
-9 -27 -19 -18 -30 -50 -9 -42 27 4 15 3 24 -2 19 -4 -4 -9 -17 -11 -29 -5
-30 -12 -35 -24 -18 -9 12 -10 12 -5 -2 3 -10 0 -18 -6 -18 -6 0 -9 -3 -6 -6
4 -3 16 0 28 6 20 11 21 10 15 -9 -5 -16 -3 -20 9 -15 9 3 13 10 10 15 -3 5 0
9 5 9 21 0 11 -31 -13 -40 -20 -7 -86 -66 -86 -75 0 -2 11 -2 25 -1 14 0 25 6
25 12 0 7 17 27 38 46 40 36 42 39 42 64 0 8 4 13 10 9 5 -3 7 -12 3 -20 -5
-14 24 -19 119 -19 9 0 15 -2 13 -6 -7 -12 62 -39 86 -34 21 4 21 3 4 -4 -19
-9 -19 -9 4 -21 12 -7 29 -10 37 -7 8 3 13 2 10 -3 -3 -4 7 -14 22 -22 130
-67 348 -206 339 -216 -3 -2 -22 3 -43 12 -121 50 -322 73 -453 50 -82 -14
-147 -10 -178 10 -32 21 -63 74 -63 108 0 29 -14 37 -23 13 -3 -8 -1 -17 6
-19 7 -2 9 -8 5 -12 -4 -4 -15 -2 -25 6 -11 9 -14 10 -9 2 5 -9 1 -13 -12 -13
-11 0 -22 7 -26 15 -3 8 -11 15 -18 14 -10 0 -10 -2 0 -6 21 -8 13 -23 -13
-23 -14 0 -25 5 -25 11 0 5 6 7 13 3 8 -5 8 -2 -2 9 -9 11 -10 17 -2 17 6 0
11 4 11 10 0 19 -28 -2 -33 -25 -3 -18 1 -26 15 -30 10 -4 15 -11 12 -17 -4
-7 -2 -8 5 -4 20 12 101 15 108 3 4 -6 0 -8 -10 -4 -18 7 -24 -8 -7 -18 6 -3
10 -12 10 -18 0 -7 -9 1 -19 16 -21 32 -39 20 -21 -14 12 -22 8 -35 -9 -25 -6
4 -7 14 -4 22 5 14 3 15 -16 4 -13 -6 -29 -9 -36 -6 -8 3 -17 -4 -21 -16 -5
-16 -8 -18 -15 -7 -5 8 -2 20 8 31 11 12 12 18 4 18 -7 0 -9 5 -6 10 3 6 0 17
-9 25 -18 18 -32 20 -19 3 19 -25 22 -48 7 -62 -13 -14 -12 -18 8 -38 l22 -22
8 24 7 25 -2 -25 c-1 -14 -7 -25 -14 -25 -7 0 -19 -9 -28 -20 -16 -19 -16 -19
-5 3 6 12 8 26 5 31 -5 9 -62 6 -99 -5 -12 -4 -16 -2 -12 5 4 6 2 11 -4 11 -7
0 -9 -8 -5 -20 7 -21 -10 -28 -18 -7 -3 7 -6 4 -6 -6 -1 -14 -6 -17 -22 -12
-15 5 -19 4 -14 -5 4 -7 18 -9 38 -4 61 13 81 10 105 -18 54 -63 14 -153 -67
-153 -28 0 -47 7 -65 24 -14 14 -26 21 -26 17 0 -4 -9 -2 -21 4 -19 11 -20 10
-9 -9 9 -18 8 -21 -9 -21 -11 0 -26 9 -34 20 -8 11 -17 17 -20 13 -4 -3 -1
-13 5 -22 7 -9 8 -13 4 -9 -5 4 -15 3 -22 -3 -10 -8 -17 -7 -29 4 -20 20 -19
31 1 23 12 -5 15 -2 10 10 -5 14 -4 15 9 4 11 -9 15 -9 15 -1 0 6 -7 14 -15
18 -21 7 -42 -22 -49 -68 -8 -50 -29 -67 -44 -34 -13 28 1 34 17 8 8 -15 11
-15 12 -3 8 69 10 87 11 101 1 9 8 15 15 12 7 -3 13 0 13 5 0 15 -87 9 -102
-6 -10 -10 -7 -17 10 -34 14 -15 22 -18 22 -9 0 8 -8 20 -17 28 -10 8 -12 12
-5 8 6 -3 12 0 13 7 1 18 28 -43 28 -62 0 -10 -2 -11 -6 -2 -2 6 -9 10 -13 7
-12 -8 -56 37 -52 52 2 7 -2 13 -7 13 -5 0 -8 -9 -6 -20 2 -11 -4 -24 -13 -30
-14 -9 -12 -10 10 -6 15 4 29 3 32 -2 2 -4 -3 -8 -12 -8 -9 0 -28 -4 -41 -8
-16 -6 -21 -5 -17 3 5 7 -1 11 -14 11 -20 0 -20 -1 -4 -25 13 -20 14 -28 4
-40 -10 -12 -9 -15 6 -15 16 0 17 -2 4 -10 -11 -7 -17 -4 -24 10 -12 26 -40
34 -67 19 l-22 -12 21 37 c23 39 27 50 15 43 -5 -3 -8 12 -7 34 0 21 -3 39 -8
39 -5 0 -6 5 -3 10 4 6 11 8 16 5 5 -4 9 -2 9 4 0 5 -9 9 -20 8 -41 -3 -74
-243 -74 -527 0 -271 26 -435 103 -662 45 -134 27 -122 193 -123 162 -1 182
-6 408 -89 323 -119 390 -136 601 -143 239 -8 401 24 669 133 349 143 445 168
618 162 90 -4 130 -10 175 -27 103 -40 157 -108 157 -194 0 -56 23 -86 71 -93
20 -4 115 7 225 26 167 29 204 32 324 28 148 -6 188 -16 353 -90 190 -85 313
-54 311 79 -1 40 -19 71 -33 57 -3 -3 0 -9 8 -13 9 -6 7 -10 -9 -14 -12 -3
-20 -10 -17 -15 3 -4 -8 -6 -25 -4 -27 4 -30 2 -25 -14 7 -18 6 -18 -7 -1 -16
21 -46 23 -46 2 0 -14 -5 -16 -27 -14 -5 0 -7 7 -5 15 4 19 -27 18 -35 -2 -6
-17 -46 -15 -144 7 l-46 10 34 65 c19 36 55 121 79 189 140 398 165 745 83
1149 -36 179 -86 323 -169 487 -96 191 -247 409 -272 393 -7 -4 -8 -2 -4 5 5
7 -9 30 -33 56 -23 25 -41 42 -41 38 0 -4 6 -14 14 -22 13 -14 12 -18 -14 -33
-23 -13 -28 -13 -23 -2 3 8 0 14 -6 14 -6 0 -11 -5 -11 -11 0 -5 -5 -7 -11 -4
-6 5 -4 12 8 20 10 8 20 9 21 4 2 -5 8 -9 13 -9 4 0 6 7 3 15 -4 10 -14 13
-32 8 -17 -4 -23 -2 -18 6 4 6 13 11 21 11 8 0 16 4 19 8 2 4 -11 6 -30 4 -19
-2 -34 -9 -34 -16 0 -6 -7 -3 -14 7 -8 10 -17 14 -20 8 -7 -11 20 -41 36 -41
6 0 8 -3 5 -7 -4 -3 -2 -12 4 -20 9 -11 7 -13 -12 -9 -13 2 -31 -2 -39 -8 -13
-10 -13 -9 -1 6 7 10 17 15 22 12 14 -9 10 12 -5 25 -7 6 -21 9 -30 5 -9 -3
-16 -2 -16 4 0 5 -11 8 -24 7 -19 -2 -23 1 -19 13 4 10 2 13 -5 8 -19 -11 -14
15 5 29 19 14 9 37 -12 29 -8 -4 -13 -10 -10 -14 6 -10 -24 -22 -36 -14 -5 3
-9 0 -9 -7 0 -6 8 -9 19 -6 15 4 20 -2 23 -24 5 -33 -6 -38 -22 -9 -6 11 -17
20 -25 20 -8 0 -15 7 -15 15 0 8 -6 15 -12 15 -9 0 -8 4 2 11 13 9 13 10 0 6
-11 -3 -14 -15 -12 -41 3 -31 0 -36 -19 -36 -22 0 -22 0 -3 14 19 14 19 15 -1
22 -11 4 -23 9 -28 11 -4 3 -12 -9 -18 -26 -10 -29 -29 -43 -29 -21 0 6 5 10
10 10 6 0 10 9 10 20 0 11 -4 20 -9 20 -13 0 -22 28 -11 35 4 3 15 -2 23 -10
21 -21 57 -19 57 2 0 13 -3 14 -12 5 -19 -19 -30 -14 -23 11 6 18 5 20 -6 10
-16 -15 -33 -17 -24 -3 9 15 -15 12 -31 -4 -9 -10 -10 -17 -4 -21 14 -9 3 -25
-17 -25 -10 0 -14 6 -10 19 3 13 -3 22 -19 30 -13 5 -26 6 -29 2 -2 -5 5 -11
16 -14 15 -4 20 -12 17 -29 -2 -16 2 -23 14 -22 21 2 31 -33 11 -40 -10 -4
-13 -2 -10 8 3 8 -5 18 -20 25 -18 8 -24 17 -20 31 3 11 1 20 -4 20 -5 0 -12
-13 -15 -30 -4 -16 -14 -35 -23 -42 -14 -11 -14 -11 -3 4 8 10 9 18 3 22 -6 4
-8 13 -5 21 4 8 10 12 15 9 5 -3 9 -1 9 5 0 5 -9 9 -21 8 -16 -1 -19 -7 -16
-24 2 -13 1 -26 -3 -28 -4 -3 -10 8 -12 25 -4 25 0 31 25 40 25 8 28 12 17 25
-14 17 -24 20 -14 4z m-246 -40 c0 -5 -4 -9 -10 -9 -5 0 -10 7 -10 16 0 8 5
12 10 9 6 -3 10 -10 10 -16z m32 -1 c-7 -7 -12 -8 -12 -2 0 14 12 26 19 19 2
-3 -1 -11 -7 -17z m48 -18 c0 -5 -4 -10 -10 -10 -5 0 -10 5 -10 10 0 6 5 10
10 10 6 0 10 -4 10 -10z m-244 -25 c12 -8 24 -11 28 -8 3 4 3 -9 0 -28 -12
-64 -56 -88 -96 -52 -37 33 -12 94 42 102 3 1 15 -6 26 -14z m74 -5 c0 -5 -7
-10 -16 -10 -8 0 -12 5 -9 10 3 6 10 10 16 10 5 0 9 -4 9 -10z m70 -5 c11 -13
10 -14 -4 -9 -9 3 -16 10 -16 15 0 13 6 11 20 -6z m-26 -24 c-4 -3 -9 0 -11 7
-3 6 -10 9 -15 6 -7 -4 -8 -2 -4 5 6 9 11 9 22 0 8 -6 12 -15 8 -18z m-514 9
c0 -5 -2 -10 -4 -10 -3 0 -8 5 -11 10 -3 6 -1 10 4 10 6 0 11 -4 11 -10z m790
-10 c0 -5 -2 -10 -4 -10 -3 0 -8 5 -11 10 -3 6 -1 10 4 10 6 0 11 -4 11 -10z
m-1095 -10 c3 -5 -4 -20 -16 -32 -18 -19 -21 -20 -15 -5 3 10 6 25 6 33 0 16
16 19 25 4z m370 -10 c3 -5 1 -10 -4 -10 -6 0 -11 5 -11 10 0 6 2 10 4 10 3 0
8 -4 11 -10z m1112 -12 c-3 -8 -6 -5 -6 6 -1 11 2 17 5 13 3 -3 4 -12 1 -19z
m-944 -3 c-3 -9 -8 -14 -10 -11 -3 3 -2 9 2 15 9 16 15 13 8 -4z m723 3 c4 -7
4 -10 -1 -6 -4 4 -16 3 -26 -3 -12 -6 -19 -6 -19 0 0 5 8 12 18 14 9 3 18 5
19 6 1 0 5 -5 9 -11z m91 -10 c-3 -8 -6 -5 -6 6 -1 11 2 17 5 13 3 -3 4 -12 1
-19z m63 7 c7 -9 8 -15 2 -15 -5 0 -12 7 -16 15 -3 8 -4 15 -2 15 2 0 9 -7 16
-15z m50 5 c0 -5 -7 -10 -15 -10 -8 0 -15 5 -15 10 0 6 7 10 15 10 8 0 15 -4
15 -10z m-304 -12 c5 -7 2 -8 -6 -3 -7 4 -16 2 -21 -6 -7 -12 -9 -12 -9 0 0
11 -4 9 -16 -5 -15 -19 -15 -19 -5 1 10 22 47 30 57 13z m534 -9 c0 -6 -4 -7
-10 -4 -5 3 -10 11 -10 16 0 6 5 7 10 4 6 -3 10 -11 10 -16z m-1643 -8 c15 -9
13 -10 -14 -11 -17 0 -35 -5 -39 -12 -4 -7 -3 -8 4 -4 8 5 10 2 6 -8 -6 -16
-42 -32 -51 -23 -2 3 5 8 17 12 20 6 21 7 3 21 -17 13 -17 14 0 8 10 -4 17 -3
16 2 -6 33 17 39 58 15z m1603 4 c0 -8 -7 -15 -16 -15 -8 0 -13 -4 -9 -9 3 -5
1 -12 -5 -16 -5 -3 -10 3 -10 14 0 12 7 21 15 21 8 0 15 5 15 10 0 6 2 10 5
10 3 0 5 -7 5 -15z m-330 -5 c0 -5 -2 -10 -4 -10 -3 0 -8 5 -11 10 -3 6 -1 10
4 10 6 0 11 -4 11 -10z m110 -10 c0 -5 -2 -10 -4 -10 -3 0 -8 5 -11 10 -3 6
-1 10 4 10 6 0 11 -4 11 -10z m-910 -10 c0 -5 -10 -10 -22 -9 -22 0 -22 1 -3
9 11 5 21 9 23 9 1 1 2 -3 2 -9z m695 1 c3 -5 1 -12 -5 -16 -5 -3 -10 1 -10 9
0 18 6 21 15 7z m465 -1 c-20 -13 -33 -13 -25 0 3 6 14 10 23 10 15 0 15 -2 2
-10z m-1730 -4 c0 -11 -19 -15 -25 -6 -3 5 1 10 9 10 9 0 16 -2 16 -4z m1470
-26 c-8 -5 -17 -7 -19 -4 -3 3 1 9 9 14 8 5 17 7 19 4 3 -3 -1 -9 -9 -14z
m325 11 c3 -5 1 -12 -5 -16 -5 -3 -10 1 -10 9 0 18 6 21 15 7z m-1708 -7 c-3
-3 -12 -4 -19 -1 -8 3 -5 6 6 6 11 1 17 -2 13 -5z m1463 2 c0 -2 -7 -7 -16
-10 -8 -3 -12 -2 -9 4 6 10 25 14 25 6z m170 0 c0 -3 -4 -8 -10 -11 -5 -3 -10
-1 -10 4 0 6 5 11 10 11 6 0 10 -2 10 -4z m-1590 -20 c0 -2 -7 -7 -16 -10 -8
-3 -12 -2 -9 4 6 10 25 14 25 6z m-109 -23 c13 -16 12 -17 -3 -4 -10 7 -18 15
-18 17 0 8 8 3 21 -13z m-56 -11 c-3 -3 -11 0 -18 7 -9 10 -8 11 6 5 10 -3 15
-9 12 -12z m115 3 c-14 -17 -40 -20 -40 -6 0 5 10 12 23 14 12 2 24 5 26 6 2
0 -2 -6 -9 -14z m-206 -30 c-4 -17 -10 -23 -16 -17 -6 6 -17 8 -24 5 -8 -3
-14 0 -14 7 0 6 5 8 10 5 6 -3 10 -1 10 5 0 6 5 8 10 5 6 -3 13 1 16 10 10 25
16 10 8 -20z m1247 -47 c95 -28 157 -122 146 -222 -11 -112 -63 -173 -276
-323 -75 -53 -179 -131 -231 -173 -93 -75 -290 -273 -290 -291 0 -5 -4 -9 -9
-9 -13 0 74 358 114 467 75 203 177 377 274 465 96 88 180 114 272 86z m-1633
-86 c1 -19 -3 -29 -12 -29 -11 0 -13 5 -5 19 8 15 6 18 -11 18 -12 0 -18 5
-15 10 13 22 41 10 43 -18z m-41 -24 c2 -16 0 -19 -6 -9 -6 9 -11 10 -15 2 -8
-13 -26 -15 -26 -3 0 4 10 12 23 18 12 7 22 12 22 13 1 0 2 -9 2 -21z m88 12
c3 -6 -1 -7 -9 -4 -18 7 -21 14 -7 14 6 0 13 -4 16 -10z m38 -36 c-7 -18 -12
-13 -18 16 -3 18 -2 20 10 10 8 -6 11 -18 8 -26z m-48 -1 c-2 -10 -4 -20 -4
-23 -2 -7 -21 23 -21 33 0 4 6 7 14 7 8 0 13 -8 11 -17z m-105 -29 c0 -8 -4
-12 -10 -9 -5 3 -10 13 -10 21 0 8 5 12 10 9 6 -3 10 -13 10 -21z m70 16 c0
-5 -6 -10 -14 -10 -8 0 -16 -6 -19 -12 -2 -7 -8 -10 -12 -5 -5 4 0 14 11 22
23 17 34 19 34 5z m95 -40 c3 -5 1 -10 -4 -10 -6 0 -11 5 -11 10 0 6 2 10 4
10 3 0 8 -4 11 -10z m-335 -10 c0 8 3 10 6 7 4 -4 1 -14 -7 -23 -12 -16 -12
-17 6 -12 16 4 20 0 20 -18 0 -16 -3 -20 -12 -12 -7 5 -17 7 -23 3 -5 -3 -10
-1 -10 5 0 6 -5 8 -10 5 -6 -4 -7 -11 -4 -17 4 -6 1 -9 -7 -6 -8 3 -16 13 -17
23 -3 10 0 15 7 11 6 -4 13 4 17 19 5 20 9 23 20 14 11 -9 14 -8 14 1z m174
-6 c3 -8 2 -12 -4 -9 -6 3 -10 10 -10 16 0 14 7 11 14 -7z m-110 -49 c-4 -8
-11 -15 -16 -15 -6 0 -5 6 2 15 7 8 14 15 16 15 2 0 1 -7 -2 -15z m96 11 c0
-3 -4 -8 -10 -11 -5 -3 -10 -1 -10 4 0 6 5 11 10 11 6 0 10 -2 10 -4z m2231
-55 c34 -34 39 -83 13 -136 -18 -38 -34 -46 -166 -79 -53 -13 -120 -36 -149
-50 -29 -14 -55 -23 -57 -21 -8 8 162 246 200 280 32 29 46 35 84 35 37 0 51
-5 75 -29z m214 -226 c14 -13 25 -28 25 -33 0 -20 -43 -62 -64 -62 -54 0 -78
59 -41 100 24 27 51 25 80 -5z m-2879 -22 c-7 -7 -26 7 -26 19 0 6 6 6 15 -2
9 -7 13 -15 11 -17z m-114 -35 c-2 -10 -6 -18 -7 -18 -1 0 -5 8 -7 18 -3 11 0
19 7 19 7 0 10 -8 7 -19z m78 -28 c8 -5 11 -10 5 -10 -5 0 -17 5 -25 10 -8 5
-10 10 -5 10 6 0 17 -5 25 -10z m-415 -79 c3 -5 1 -12 -4 -15 -5 -3 -11 1 -15
9 -6 16 9 21 19 6z m-235 -13 c-1 -19 -29 -78 -33 -71 -3 5 -2 15 2 22 5 7 6
22 4 32 -4 13 0 19 11 19 9 0 16 -1 16 -2z m404 -67 c-10 -11 -22 -17 -27 -14
-5 3 1 14 14 24 30 22 36 17 13 -10z m1032 17 c208 -32 429 -171 537 -336 68
-104 127 -266 127 -347 l0 -30 -21 25 c-11 14 -18 18 -14 10 9 -20 -39 33 -98
109 -26 34 -64 72 -84 84 -35 22 -37 23 -55 5 -13 -13 -23 -15 -42 -9 -16 7
-27 6 -35 -2 -9 -9 -15 -8 -22 6 -6 9 -14 17 -20 17 -5 0 -19 9 -31 20 -12 11
-27 20 -34 20 -6 0 -14 6 -17 14 -4 10 -47 31 -47 22 0 -1 15 -19 34 -39 60
-66 149 -177 144 -182 -2 -2 -35 11 -73 29 -74 36 -85 36 -85 6 0 -25 -78
-100 -103 -100 -15 0 -18 -5 -15 -24 4 -20 1 -22 -16 -18 -19 5 -20 4 -7 -12
24 -29 142 -94 221 -122 92 -32 97 -37 65 -54 -18 -9 -25 -22 -27 -44 0 -17
-2 -38 -2 -46 -1 -10 12 -18 34 -22 19 -4 -3 -5 -50 -3 -178 8 -347 89 -492
236 -99 100 -156 180 -203 283 -41 88 -92 248 -110 341 -8 39 -16 77 -20 86
-5 12 6 18 52 29 32 7 63 17 68 21 6 4 44 12 85 18 41 6 86 13 100 15 45 7
196 4 256 -6z m-1273 -5 c-7 -2 -19 -2 -25 0 -7 3 -2 5 12 5 14 0 19 -2 13 -5z
m-35 -25 c-6 -18 -28 -21 -28 -4 0 9 7 16 16 16 9 0 14 -5 12 -12z m37 2 c3
-5 2 -10 -4 -10 -5 0 -13 5 -16 10 -3 6 -2 10 4 10 5 0 13 -4 16 -10z m155 -6
c5 -5 -1 -9 -15 -9 -14 0 -25 5 -26 10 0 6 -4 1 -9 -10 -8 -19 -9 -19 -9 2 -1
17 4 21 24 19 14 -2 30 -7 35 -12z m-320 -29 c-10 -12 -9 -16 4 -21 9 -3 16
-12 16 -20 0 -16 -9 -18 -30 -4 -12 8 -12 10 -1 10 10 0 11 3 2 13 -8 10 -7
17 1 25 17 17 23 15 8 -3z m200 1 c0 -3 -4 -8 -10 -11 -5 -3 -10 -1 -10 4 0 6
5 11 10 11 6 0 10 -2 10 -4z m2999 -26 c46 -11 87 -22 91 -25 5 -3 0 -29 -10
-57 -10 -29 -28 -89 -40 -133 -32 -113 -81 -229 -91 -213 -4 7 -11 9 -15 5 -4
-3 -2 -13 5 -21 9 -10 7 -21 -6 -45 -10 -17 -23 -29 -30 -27 -7 3 -10 -1 -6
-9 5 -16 -108 -159 -147 -185 -12 -8 -29 -21 -37 -29 -24 -23 -86 -63 -126
-81 -36 -17 -87 -16 -87 0 0 5 -9 12 -20 15 -13 4 -20 15 -20 31 0 20 -5 24
-30 24 -16 0 -30 4 -30 9 0 5 10 7 23 5 12 -2 16 -1 9 2 -9 4 17 27 71 63 88
59 167 125 167 140 0 5 7 12 16 15 10 4 13 13 9 28 -4 16 -4 19 3 9 10 -14 36
-6 27 9 -3 5 -1 11 5 15 6 4 8 11 4 16 -3 5 -9 7 -13 4 -5 -2 -13 7 -20 21 -8
18 -17 25 -29 21 -44 -12 -47 -12 -44 7 2 11 -1 15 -8 11 -6 -4 -8 -15 -5 -26
5 -15 1 -19 -16 -19 -18 0 -19 2 -9 15 10 12 10 15 -2 15 -8 0 -19 -5 -26 -12
-6 -6 -22 -13 -34 -15 -12 -2 -25 -7 -28 -11 -3 -5 -23 -16 -45 -26 -22 -10
-62 -30 -89 -43 l-50 -25 97 103 c53 57 94 105 92 108 -2 2 -16 -4 -31 -14
-19 -12 -29 -14 -37 -6 -9 9 -8 14 3 21 8 5 13 10 10 11 -3 0 -23 3 -45 5 -32
4 -38 3 -27 -7 17 -18 15 -27 -5 -25 -10 0 -17 -3 -16 -9 0 -5 -10 -18 -23
-28 -13 -10 -24 -13 -24 -7 0 5 5 10 10 10 6 0 10 7 10 15 0 20 -64 -22 -146
-97 -49 -45 -57 -49 -51 -28 l6 25 -19 -25 c-10 -14 -25 -36 -32 -50 -7 -14
-19 -35 -27 -48 -42 -69 -21 82 26 190 70 157 219 300 371 357 143 54 373 63
541 21z m-2926 14 c9 -9 -4 -35 -14 -28 -5 3 -9 12 -9 20 0 14 12 19 23 8z
m-163 -14 c0 -5 -2 -10 -4 -10 -3 0 -8 5 -11 10 -3 6 -1 10 4 10 6 0 11 -4 11
-10z m122 -2 c-9 -9 -15 -9 -24 0 -9 9 -7 12 12 12 19 0 21 -3 12 -12z m-162
-32 c0 -11 -19 -15 -25 -6 -3 5 1 10 9 10 9 0 16 -2 16 -4z m95 -6 c3 -5 -1
-10 -9 -10 -9 0 -16 5 -16 10 0 6 4 10 9 10 6 0 13 -4 16 -10z m-40 -30 c10
-11 15 -23 12 -27 -4 -3 -7 -1 -7 6 0 7 -7 11 -14 8 -11 -4 -13 -1 -9 10 5 12
2 15 -10 10 -9 -3 -17 -2 -17 3 0 17 26 11 45 -10z m-132 -21 c-8 -8 -13 -7
-18 2 -5 8 -4 10 3 5 7 -4 12 -2 12 5 0 7 3 9 7 6 4 -4 2 -12 -4 -18z m136
-23 c9 -11 6 -12 -15 -8 -19 3 -22 7 -12 13 16 11 14 11 27 -5z m48 -2 c-3 -3
-12 -4 -19 -1 -8 3 -5 6 6 6 11 1 17 -2 13 -5z m367 -120 c35 -34 6 -94 -45
-94 -19 0 -34 8 -44 24 -15 22 -15 27 0 55 12 24 22 31 45 31 16 0 36 -7 44
-16z m2988 -121 c24 -22 23 -75 -2 -98 -24 -21 -72 -24 -94 -5 -21 17 -20 79
1 102 20 22 70 23 95 1z m-947 -2 c3 -5 1 -12 -5 -16 -5 -3 -10 1 -10 9 0 18
6 21 15 7z m-58 -47 c-3 -3 -12 -4 -19 -1 -8 3 -5 6 6 6 11 1 17 -2 13 -5z
m366 -14 c8 -30 -8 -33 -21 -5 -9 20 -9 25 2 25 8 0 16 -9 19 -20z m-29 -35
c6 -17 4 -18 -18 -9 -20 8 -21 24 -2 24 8 0 16 -7 20 -15z m-2128 -35 c7 0 21
-14 30 -31 12 -25 14 -37 5 -56 -10 -22 -46 -43 -75 -43 -22 0 -56 40 -56 66
0 31 45 78 66 70 9 -3 22 -6 30 -6z m2658 -181 c48 -38 20 -112 -43 -112 -59
0 -88 59 -51 106 26 32 58 35 94 6z m-2631 -133 c61 -25 93 -107 64 -162 -25
-49 -62 -76 -109 -81 -132 -13 -190 167 -75 237 38 23 75 25 120 6z m297 -26
c24 -24 25 -47 3 -72 -18 -20 -63 -24 -81 -6 -29 29 -1 98 40 98 10 0 27 -9
38 -20z m1658 -21 c-18 -12 -25 -11 -31 4 -4 10 2 13 20 9 18 -3 21 -7 11 -13z
m473 -125 c31 -15 59 -66 59 -104 0 -40 -30 -81 -75 -101 -38 -17 -48 -18 -81
-7 -43 14 -84 66 -84 105 0 38 30 92 59 108 35 19 85 19 122 -1z"/>
<path d="M5614 6580 c-23 -21 -44 -36 -48 -33 -3 4 -6 1 -6 -6 0 -6 -8 -11
-17 -9 -13 2 -17 -3 -15 -17 2 -16 1 -17 -7 -5 -5 8 -8 17 -5 21 2 4 -3 9 -10
12 -10 4 -24 -9 -40 -37 -32 -55 -97 -198 -93 -203 2 -2 15 14 29 34 14 21 78
93 143 161 118 123 145 155 69 82z"/>
<path d="M4906 5972 c-3 -5 1 -9 9 -9 8 0 12 4 9 9 -3 4 -7 8 -9 8 -2 0 -6 -4
-9 -8z"/>
<path d="M5850 6045 c-7 -9 -11 -17 -9 -20 3 -2 10 5 17 15 14 24 10 26 -8 5z"/>
<path d="M6123 6030 c-30 -12 -29 -20 2 -18 14 1 25 8 25 15 0 7 -1 13 -2 12
-2 0 -13 -4 -25 -9z"/>
<path d="M6160 5980 c-9 -6 -10 -10 -3 -10 6 0 15 5 18 10 8 12 4 12 -15 0z"/>
<path d="M6195 5979 c-11 -16 -1 -19 13 -3 7 8 8 14 3 14 -5 0 -13 -5 -16 -11z"/>
<path d="M6110 5955 c-14 -26 -33 -35 -24 -11 3 8 0 17 -7 22 -9 5 -10 -1 -6
-25 6 -29 5 -32 -14 -26 -20 7 -20 6 -3 -14 18 -21 18 -20 47 25 15 25 27 48
24 50 -2 2 -10 -7 -17 -21z"/>
<path d="M6170 5923 c0 -5 5 -15 10 -23 7 -12 9 -10 7 8 -1 19 -17 33 -17 15z"/>
<path d="M6230 5900 c0 -11 -5 -19 -12 -17 -7 1 -12 -9 -12 -22 -1 -27 22 -36
42 -15 16 17 8 18 -21 3 -21 -11 -21 -11 -6 7 19 23 31 64 18 64 -5 0 -9 -9
-9 -20z"/>
<path d="M6116 5821 c-4 -7 -5 -15 -2 -18 9 -9 19 4 14 18 -4 11 -6 11 -12 0z"/>
<path d="M6150 5807 c0 -21 15 -36 28 -29 8 6 6 13 -8 25 -13 11 -20 13 -20 4z"/>
<path d="M6151 5734 c0 -11 3 -14 6 -6 3 7 2 16 -1 19 -3 4 -6 -2 -5 -13z"/>
<path d="M6420 7500 c0 -5 5 -10 11 -10 5 0 7 5 4 10 -3 6 -8 10 -11 10 -2 0
-4 -4 -4 -10z"/>
<path d="M4966 7491 c-4 -5 3 -7 14 -4 23 6 26 13 6 13 -8 0 -17 -4 -20 -9z"/>
<path d="M5028 7493 c6 -2 18 -2 25 0 6 3 1 5 -13 5 -14 0 -19 -2 -12 -5z"/>
<path d="M5086 7486 c6 -15 4 -17 -6 -11 -9 6 -11 4 -5 -4 5 -9 10 -10 18 -2
8 8 7 14 -2 24 -10 10 -11 8 -5 -7z"/>
<path d="M5368 7493 c7 -3 16 -2 19 1 4 3 -2 6 -13 5 -11 0 -14 -3 -6 -6z"/>
<path d="M6190 7492 c0 -4 9 -8 19 -8 11 0 17 4 15 8 -3 4 -12 8 -20 8 -8 0
-14 -4 -14 -8z"/>
<path d="M5548 7483 c6 -2 18 -2 25 0 6 3 1 5 -13 5 -14 0 -19 -2 -12 -5z"/>
<path d="M4600 7470 c0 -5 5 -10 11 -10 5 0 7 5 4 10 -3 6 -8 10 -11 10 -2 0
-4 -4 -4 -10z"/>
<path d="M5400 7470 c0 -5 -6 -7 -14 -4 -8 3 -17 1 -20 -4 -3 -5 6 -9 19 -9
15 0 25 5 25 13 0 8 -2 14 -5 14 -3 0 -5 -4 -5 -10z"/>
<path d="M5500 7467 c0 -8 6 -14 14 -14 8 0 12 6 9 14 -3 7 -9 13 -14 13 -5 0
-9 -6 -9 -13z"/>
<path d="M5690 7470 c0 -5 -6 -7 -14 -4 -8 3 -17 1 -21 -5 -4 -7 4 -11 19 -11
16 0 26 6 26 15 0 8 -2 15 -5 15 -3 0 -5 -4 -5 -10z"/>
<path d="M6261 7464 c0 -11 3 -14 6 -6 3 7 2 16 -1 19 -3 4 -6 -2 -5 -13z"/>
<path d="M6450 7471 c0 -6 4 -13 10 -16 6 -3 7 1 4 9 -7 18 -14 21 -14 7z"/>
<path d="M5420 7459 c0 -10 23 -17 38 -12 21 8 13 18 -13 18 -14 0 -25 -3 -25
-6z"/>
<path d="M6357 7438 c-13 -30 -12 -34 6 -41 25 -9 32 -3 22 20 -5 10 -7 26 -6
36 4 27 -8 20 -22 -15z"/>
<path d="M6428 7443 c5 -21 7 -23 10 -9 2 10 0 22 -6 28 -6 6 -7 0 -4 -19z"/>
<path d="M5248 7453 c7 -3 16 -2 19 1 4 3 -2 6 -13 5 -11 0 -14 -3 -6 -6z"/>
<path d="M4890 7441 c0 -6 4 -13 10 -16 6 -3 7 1 4 9 -7 18 -14 21 -14 7z"/>
<path d="M4965 7430 c-10 -11 -16 -20 -13 -20 3 0 15 9 28 20 13 11 19 20 13
20 -5 0 -18 -9 -28 -20z"/>
<path d="M5137 7439 c-10 -6 -24 -8 -31 -6 -7 3 -13 -1 -13 -9 0 -8 5 -14 10
-14 5 0 6 -7 3 -16 -3 -9 -2 -12 5 -9 6 4 8 13 5 21 -3 9 1 14 13 14 10 0 21
7 25 15 6 18 6 18 -17 4z"/>
<path d="M5342 7436 c7 -8 17 -12 22 -9 4 3 2 9 -5 14 -22 13 -31 11 -17 -5z"/>
<path d="M6483 7435 c0 -8 4 -12 9 -9 5 3 6 10 3 15 -9 13 -12 11 -12 -6z"/>
<path d="M4670 7429 c0 -5 5 -7 10 -4 6 3 10 8 10 11 0 2 -4 4 -10 4 -5 0 -10
-5 -10 -11z"/>
<path d="M4925 7429 c-11 -16 -1 -19 13 -3 7 8 8 14 3 14 -5 0 -13 -5 -16 -11z"/>
<path d="M6398 7433 c7 -3 16 -2 19 1 4 3 -2 6 -13 5 -11 0 -14 -3 -6 -6z"/>
<path d="M4870 7421 c0 -6 4 -13 10 -16 6 -3 7 1 4 9 -7 18 -14 21 -14 7z"/>
<path d="M5280 7415 c7 -9 15 -13 17 -11 7 7 -7 26 -19 26 -6 0 -6 -6 2 -15z"/>
<path d="M5011 7414 c-1 -18 26 -37 34 -24 3 5 0 10 -9 10 -8 0 -17 6 -19 13
-4 7 -6 8 -6 1z"/>
<path d="M4610 7390 c0 -5 5 -10 11 -10 5 0 7 5 4 10 -3 6 -8 10 -11 10 -2 0
-4 -4 -4 -10z"/>
<path d="M4683 7363 c35 -9 6 -20 -45 -17 -40 2 -49 0 -35 -7 10 -6 25 -8 33
-5 8 3 14 0 14 -5 0 -7 -11 -9 -25 -7 -14 3 -27 2 -30 -1 -8 -14 54 -10 68 4
12 11 17 12 20 2 3 -8 10 -6 20 8 16 21 7 36 -23 34 -11 -1 -10 -3 3 -6z"/>
<path d="M4970 7350 c-8 -5 -11 -12 -7 -16 4 -4 13 -2 19 4 15 15 7 24 -12 12z"/>
<path d="M4595 7290 c3 -5 8 -10 11 -10 2 0 4 5 4 10 0 6 -5 10 -11 10 -5 0
-7 -4 -4 -10z"/>
<path d="M4220 7190 c0 -5 5 -10 10 -10 6 0 10 5 10 10 0 6 -4 10 -10 10 -5 0
-10 -4 -10 -10z"/>
<path d="M4107 7170 c-3 -11 -1 -20 4 -20 5 0 9 9 9 20 0 11 -2 20 -4 20 -2 0
-6 -9 -9 -20z"/>
<path d="M4170 7161 c0 -6 4 -13 10 -16 6 -3 7 1 4 9 -7 18 -14 21 -14 7z"/>
<path d="M3910 7150 c0 -5 5 -10 10 -10 6 0 10 5 10 10 0 6 -4 10 -10 10 -5 0
-10 -4 -10 -10z"/>
<path d="M4145 7150 c3 -5 8 -10 11 -10 2 0 4 5 4 10 0 6 -5 10 -11 10 -5 0
-7 -4 -4 -10z"/>
<path d="M4205 7150 c-3 -5 -2 -10 4 -10 5 0 13 5 16 10 3 6 2 10 -4 10 -5 0
-13 -4 -16 -10z"/>
<path d="M4245 7146 c-18 -13 -18 -14 8 -9 15 3 27 9 27 14 0 13 -13 11 -35
-5z"/>
<path d="M4066 7124 c-17 -10 -40 -14 -57 -10 -33 6 -49 -12 -26 -29 9 -7 14
-15 10 -18 -3 -4 -1 -7 5 -7 7 0 12 4 12 9 0 6 9 8 20 6 11 -2 20 0 20 6 0 11
22 8 33 -6 5 -6 7 -3 4 6 -3 9 1 26 9 38 18 25 10 26 -30 5z"/>
<path d="M4215 7090 c-3 -5 3 -10 14 -10 12 0 21 5 21 10 0 6 -6 10 -14 10 -8
0 -18 -4 -21 -10z"/>
<path d="M4100 7079 c0 -5 5 -7 10 -4 6 3 10 8 10 11 0 2 -4 4 -10 4 -5 0 -10
-5 -10 -11z"/>
<path d="M4130 7081 c0 -6 5 -13 10 -16 6 -3 10 1 10 9 0 9 -4 16 -10 16 -5 0
-10 -4 -10 -9z"/>
<path d="M3955 7059 c-4 -6 -5 -12 -2 -15 2 -3 7 2 10 11 7 17 1 20 -8 4z"/>
<path d="M4057 7063 c-4 -3 -7 -16 -6 -27 0 -19 1 -19 10 3 10 24 8 36 -4 24z"/>
<path d="M4027 7053 c-4 -3 -7 -11 -7 -17 0 -6 5 -5 12 2 6 6 9 14 7 17 -3 3
-9 2 -12 -2z"/>
<path d="M4088 7046 c-18 -13 -34 -71 -17 -60 6 3 8 9 5 12 -4 3 4 16 16 29
24 26 22 38 -4 19z"/>
<path d="M4170 7031 c0 -11 4 -22 9 -25 11 -7 20 14 13 32 -7 19 -22 14 -22
-7z"/>
<path d="M3925 6998 c1 -13 6 -21 11 -19 10 3 7 21 -5 34 -4 4 -7 -3 -6 -15z"/>
<path d="M3960 7010 c-13 -8 -12 -10 3 -10 9 0 17 5 17 10 0 12 -1 12 -20 0z"/>
<path d="M4150 7020 c-8 -26 -7 -41 2 -32 6 6 8 16 5 24 -3 7 -6 11 -7 8z"/>
<path d="M3740 6985 c0 -5 5 -17 10 -25 5 -8 10 -10 10 -5 0 6 -5 17 -10 25
-5 8 -10 11 -10 5z"/>
<path d="M3901 6954 c0 -11 3 -14 6 -6 3 7 2 16 -1 19 -3 4 -6 -2 -5 -13z"/>
<path d="M3966 6934 c-9 -23 -2 -28 13 -10 7 8 8 17 3 20 -6 3 -13 -1 -16 -10z"/>
<path d="M3837 6916 c-5 -13 -1 -15 19 -12 15 3 29 8 33 12 3 4 -1 5 -10 1 -9
-3 -21 -1 -26 4 -7 7 -12 5 -16 -5z"/>
<path d="M3788 6898 c5 -5 16 -8 23 -6 8 3 3 7 -10 11 -17 4 -21 3 -13 -5z"/>
<path d="M3755 6890 c3 -5 8 -10 11 -10 2 0 4 5 4 10 0 6 -5 10 -11 10 -5 0
-7 -4 -4 -10z"/>
<path d="M3862 6874 c10 -10 20 -15 24 -12 3 4 -5 12 -18 18 -22 12 -22 12 -6
-6z"/>
<path d="M3580 6860 c0 -5 5 -10 10 -10 6 0 10 5 10 10 0 6 -4 10 -10 10 -5 0
-10 -4 -10 -10z"/>
<path d="M3780 6859 c0 -5 5 -7 10 -4 6 3 10 8 10 11 0 2 -4 4 -10 4 -5 0 -10
-5 -10 -11z"/>
<path d="M3886 6845 c-11 -8 -16 -18 -12 -22 3 -4 16 3 29 15 24 25 12 29 -17
7z"/>
<path d="M3841 6841 c-7 -5 -11 -15 -9 -22 3 -10 8 -7 17 9 13 24 12 26 -8 13z"/>
<path d="M3196 6814 c-8 -22 -4 -25 11 -9 7 8 9 16 4 19 -5 3 -12 -1 -15 -10z"/>
<path d="M3800 6820 c-9 -6 -10 -10 -3 -10 6 0 15 5 18 10 8 12 4 12 -15 0z"/>
<path d="M3556 6812 c-2 -4 2 -16 10 -27 8 -10 14 -14 14 -8 0 7 -5 15 -10 18
-6 4 -8 11 -5 16 4 5 4 9 1 9 -3 0 -7 -3 -10 -8z"/>
<path d="M3672 6780 c0 -14 2 -19 5 -12 2 6 2 18 0 25 -3 6 -5 1 -5 -13z"/>
<path d="M3806 6790 c-15 -5 -16 -9 -7 -15 8 -4 17 -2 22 6 10 15 11 9 11 -36
-1 -16 2 -22 4 -12 3 9 12 17 20 17 12 0 12 4 2 20 -16 24 -28 29 -52 20z"/>
<path d="M3725 6780 c-3 -5 -1 -10 4 -10 6 0 11 5 11 10 0 6 -2 10 -4 10 -3 0
-8 -4 -11 -10z"/>
<path d="M3605 6770 c-3 -5 -1 -10 4 -10 6 0 11 5 11 10 0 6 -2 10 -4 10 -3 0
-8 -4 -11 -10z"/>
<path d="M3175 6749 c-4 -6 -5 -12 -2 -15 2 -3 7 2 10 11 7 17 1 20 -8 4z"/>
<path d="M3680 6741 c0 -6 4 -12 8 -15 5 -3 9 1 9 9 0 8 -4 15 -9 15 -4 0 -8
-4 -8 -9z"/>
<path d="M3566 6724 c-5 -14 -4 -15 9 -4 17 14 19 20 6 20 -5 0 -12 -7 -15
-16z"/>
<path d="M5159 6721 c-3 -10 -19 -14 -47 -13 -35 2 -42 -1 -42 -17 0 -29 40
-151 49 -151 12 0 53 145 49 172 -2 15 -5 18 -9 9z"/>
<path d="M3360 6700 c0 -5 5 -10 10 -10 6 0 10 5 10 10 0 6 -4 10 -10 10 -5 0
-10 -4 -10 -10z"/>
<path d="M3147 6676 c-5 -15 -6 -31 -3 -34 8 -8 18 25 14 45 -3 13 -6 10 -11
-11z"/>
<path d="M3585 6690 c-3 -5 -4 -14 0 -19 3 -5 -10 -15 -29 -22 -19 -7 -33 -16
-30 -21 3 -5 9 -6 14 -3 4 3 13 -2 20 -10 11 -13 8 -15 -14 -15 -16 0 -26 -6
-26 -14 0 -8 -6 -17 -12 -19 -8 -4 -7 -6 3 -6 9 -1 19 6 23 14 3 8 12 12 19 9
20 -7 29 22 11 37 -12 10 -11 13 8 23 13 7 24 21 24 34 1 24 -2 27 -11 12z"/>
<path d="M3663 6693 c9 -2 15 -9 12 -14 -4 -5 -1 -9 4 -9 6 0 11 7 11 15 0 9
-9 15 -22 14 -18 -1 -19 -2 -5 -6z"/>
<path d="M3178 6673 c7 -3 16 -2 19 1 4 3 -2 6 -13 5 -11 0 -14 -3 -6 -6z"/>
<path d="M3790 6670 c-20 -12 -5 -24 16 -12 9 5 12 12 7 15 -5 3 -15 2 -23 -3z"/>
<path d="M3226 6653 c-6 -14 -5 -15 5 -6 7 7 10 15 7 18 -3 3 -9 -2 -12 -12z"/>
<path d="M3633 6664 c-7 -3 -10 -11 -7 -19 4 -9 0 -12 -14 -8 -11 2 -22 0 -26
-5 -3 -5 9 -8 29 -6 22 1 33 -1 29 -8 -4 -6 3 -5 15 1 12 7 27 9 33 5 7 -4 8
-3 4 4 -4 7 -18 12 -31 12 -18 0 -23 4 -19 15 6 16 6 16 -13 9z"/>
<path d="M3688 6653 c7 -3 16 -2 19 1 4 3 -2 6 -13 5 -11 0 -14 -3 -6 -6z"/>
<path d="M3254 6630 c0 -13 4 -16 10 -10 7 7 7 13 0 20 -6 6 -10 3 -10 -10z"/>
<path d="M3459 6641 c8 -5 11 -16 7 -27 -6 -18 -5 -17 9 0 15 20 6 36 -20 36
-5 0 -4 -4 4 -9z"/>
<path d="M3329 6630 c-19 -13 -8 -18 21 -10 19 4 21 7 9 12 -9 3 -22 2 -30 -2z"/>
<path d="M3125 6610 c-4 -12 -5 -24 -2 -27 3 -2 8 5 12 17 4 12 5 24 2 27 -3
2 -8 -5 -12 -17z"/>
<path d="M3400 6596 c0 -2 7 -7 16 -10 8 -3 12 -2 9 4 -6 10 -25 14 -25 6z"/>
<path d="M3154 6568 c9 -5 23 -5 32 0 12 6 7 9 -16 9 -23 0 -28 -3 -16 -9z"/>
<path d="M3246 6566 c6 -15 4 -17 -6 -11 -9 6 -11 4 -5 -4 5 -9 10 -10 18 -2
8 8 7 14 -2 24 -10 10 -11 8 -5 -7z"/>
<path d="M3400 6565 c10 -12 10 -15 -2 -15 -8 0 -20 6 -27 13 -11 9 -10 7 0
-10 15 -25 24 -28 34 -13 5 8 12 7 22 -2 15 -12 15 -11 2 9 -7 13 -20 25 -28
28 -11 4 -12 3 -1 -10z"/>
<path d="M3110 6555 c0 -8 2 -15 4 -15 2 0 6 7 10 15 3 8 1 15 -4 15 -6 0 -10
-7 -10 -15z"/>
<path d="M3310 6560 c0 -5 10 -15 23 -21 22 -12 22 -12 3 10 -21 23 -26 26
-26 11z"/>
<path d="M3462 6554 c2 -11 -7 -23 -22 -32 l-25 -13 33 4 c20 2 31 0 29 -7 -2
-6 -11 -11 -19 -10 -15 1 -17 -16 -4 -53 8 -26 26 -31 26 -8 0 8 5 15 10 15 6
0 10 4 10 10 0 5 -7 7 -16 3 -14 -5 -14 -2 0 31 8 20 11 34 6 31 -6 -3 -10 3
-10 14 0 11 -5 23 -11 26 -6 4 -9 0 -7 -11z"/>
<path d="M3184 6550 c-12 -5 -25 -15 -29 -22 -6 -10 -5 -11 6 0 7 6 23 12 36
12 13 0 23 5 23 10 0 12 -7 12 -36 0z"/>
<path d="M3276 6545 c-3 -9 0 -15 9 -15 8 0 15 7 15 15 0 8 -4 15 -9 15 -5 0
-11 -7 -15 -15z"/>
<path d="M3510 6535 c0 -8 6 -15 13 -15 7 -1 5 -6 -6 -14 -13 -10 -16 -21 -11
-40 3 -14 10 -29 15 -32 12 -7 11 3 -1 27 -6 10 -7 19 -3 19 5 0 14 13 20 29
9 24 8 31 -4 35 -21 8 -23 8 -23 -9z"/>
<path d="M3217 6518 c15 -24 13 -48 -3 -48 -11 0 -15 6 -11 19 3 13 -1 21 -13
24 -22 6 -47 -8 -32 -17 6 -3 12 -1 14 6 3 7 11 -2 20 -19 12 -23 13 -34 4
-43 -8 -8 -7 -10 6 -5 20 8 48 63 41 82 -3 7 -12 13 -20 13 -9 0 -11 -5 -6
-12z"/>
<path d="M3349 6520 c-7 -5 -10 -13 -5 -17 5 -4 11 -3 13 4 2 7 11 9 19 6 8
-3 14 -3 14 0 0 10 -27 15 -41 7z"/>
<path d="M3295 6510 c3 -5 8 -10 11 -10 2 0 4 5 4 10 0 6 -5 10 -11 10 -5 0
-7 -4 -4 -10z"/>
<path d="M3404 6488 c3 -15 26 -23 26 -8 0 6 -4 9 -9 6 -5 -4 -12 -1 -14 4 -3
6 -4 5 -3 -2z"/>
<path d="M3146 6453 c2 -23 0 -44 -6 -48 -5 -3 -10 -11 -10 -17 0 -7 4 -7 13
0 13 11 52 -9 40 -21 -3 -4 -1 -7 5 -7 18 0 14 18 -8 40 -11 11 -16 20 -12 20
5 0 8 13 8 29 0 17 -4 27 -9 24 -5 -3 -13 1 -18 8 -5 9 -6 -2 -3 -28z"/>
<path d="M3410 6409 c0 -5 5 -7 10 -4 6 3 10 8 10 11 0 2 -4 4 -10 4 -5 0 -10
-5 -10 -11z"/>
<path d="M7035 5040 c-3 -6 1 -7 9 -4 18 7 21 14 7 14 -6 0 -13 -4 -16 -10z"/>
<path d="M3057 4811 c-8 -39 8 -108 31 -135 20 -23 73 -46 104 -46 48 0 101
23 179 76 44 31 101 66 125 78 l45 23 -73 -3 c-40 -1 -75 -3 -78 -5 -14 -6
-36 -4 -42 6 -5 6 -8 3 -8 -7 0 -10 -5 -18 -11 -18 -5 0 -7 -5 -3 -12 4 -6 3
-9 -2 -5 -5 3 -28 2 -52 -3 -31 -5 -42 -4 -42 5 0 12 -45 31 -62 27 -5 -1 -8
3 -8 9 0 5 -5 7 -10 4 -6 -4 -22 1 -37 10 -20 13 -27 14 -33 5 -6 -9 -9 -8
-12 6 -3 13 -6 8 -11 -15z"/>
<path d="M3595 4811 c2 -5 -8 -11 -23 -14 -15 -3 -40 -10 -55 -16 l-29 -11 53
-58 c210 -227 385 -362 614 -472 149 -71 263 -111 430 -150 180 -41 314 -53
523 -47 197 5 279 18 498 76 324 87 541 209 821 460 l102 92 61 -41 c107 -72
150 -82 206 -45 33 22 48 57 39 92 -4 15 -10 22 -12 15 -3 -6 -9 -10 -14 -6
-5 3 -9 0 -9 -5 0 -16 -50 -13 -56 3 -4 9 -20 14 -50 14 -29 -1 -51 5 -64 17
-15 13 -19 15 -15 4 4 -10 -1 -15 -15 -16 -11 -1 -20 2 -20 7 0 5 -15 9 -34 8
-26 -1 -33 -5 -28 -16 5 -14 3 -14 -17 0 -22 16 -76 17 -206 4 -121 -13 -354
-80 -570 -166 -44 -18 -84 -33 -90 -34 -5 -2 -17 -6 -25 -9 -20 -9 -132 -47
-137 -47 -2 0 -1 6 2 13 4 6 1 5 -7 -4 -28 -33 -141 -53 -151 -26 -4 10 -6 10
-6 0 -1 -16 -40 -17 -61 -2 -12 8 -9 10 13 6 15 -2 27 0 27 4 0 5 -10 9 -22 9
-13 0 -29 4 -37 9 -18 12 -17 59 1 78 9 8 72 34 140 57 129 44 248 109 302
165 27 28 28 31 10 37 -40 13 -44 13 -44 4 0 -4 -21 -6 -47 -3 -103 10 -295
-55 -538 -184 -264 -140 -455 -181 -690 -148 -27 4 -51 11 -53 16 -2 5 -14 9
-27 9 -31 0 -43 20 -13 21 20 1 20 2 3 6 -10 3 -29 12 -41 20 -15 9 -24 11
-29 4 -3 -6 0 -11 8 -11 8 0 18 -7 21 -16 6 -15 4 -15 -16 -2 -17 12 -23 25
-23 54 0 52 18 59 185 73 172 15 232 42 201 90 -12 19 -97 27 -117 10 -12 -10
-60 -13 -193 -13 -170 0 -181 1 -326 37 -192 48 -185 47 -185 35 0 -11 -29
-42 -34 -37 -2 2 -11 18 -20 34 -13 22 -16 24 -13 8 4 -16 1 -20 -10 -16 -8 3
-12 11 -10 17 3 7 -4 12 -14 12 -11 0 -19 -6 -19 -13 0 -7 -4 -13 -10 -13 -5
0 -7 6 -4 13 3 8 -4 13 -16 14 -11 1 -18 -2 -15 -6z"/>
<path d="M3731 4806 c-8 -10 -9 -16 -1 -21 5 -3 10 -5 11 -3 4 18 7 38 4 38
-1 0 -8 -6 -14 -14z"/>
<path d="M5550 4530 c-9 -6 -10 -10 -3 -10 6 0 15 5 18 10 8 12 4 12 -15 0z"/>
<path d="M3470 4500 c0 -5 -4 -10 -9 -10 -5 0 -20 -4 -33 -9 -13 -5 -27 -9
-32 -9 -21 -1 -28 -34 -10 -53 22 -25 59 -24 84 1 21 21 27 60 10 60 -5 0 -7
7 -4 15 4 8 3 15 0 15 -3 0 -6 -4 -6 -10z"/>
<path d="M6350 4304 c-6 -14 -10 -32 -10 -39 0 -18 39 -45 65 -45 74 1 62 97
-13 106 -27 3 -34 0 -42 -22z m56 1 c-3 -8 0 -15 6 -15 6 0 9 -3 5 -6 -10 -11
-26 6 -20 21 3 8 7 15 10 15 3 0 3 -7 -1 -15z"/>
<path d="M4820 3930 c-52 -4 -122 -13 -155 -18 -33 -6 -133 -19 -222 -28 -90
-10 -163 -21 -163 -26 0 -4 -33 -9 -72 -10 -54 -1 -38 -3 62 -9 184 -12 1222
-14 1395 -3 l140 9 -85 5 c-51 3 -88 1 -92 -5 -5 -6 -8 -6 -8 2 0 6 -15 11
-37 10 -20 -1 -38 4 -41 11 -2 7 -8 12 -13 12 -6 0 -7 -4 -4 -10 3 -5 -1 -10
-10 -10 -9 0 -14 4 -11 9 3 5 -3 11 -14 14 -11 3 -20 2 -20 -2 0 -11 -34 -10
-41 1 -3 5 -16 10 -27 11 -12 1 -22 4 -22 7 0 3 -24 5 -52 6 -29 0 -104 8
-167 17 -120 18 -183 19 -341 7z"/>
<path d="M4038 3853 c12 -2 32 -2 45 0 12 2 2 4 -23 4 -25 0 -35 -2 -22 -4z"/>
<path d="M2273 3432 c-62 -2 -83 -6 -79 -15 2 -7 67 -165 144 -352 216 -528
242 -589 254 -596 13 -8 190 0 200 10 4 3 36 83 73 176 129 332 247 641 270
708 l24 67 -124 0 -123 0 -30 -87 c-17 -49 -56 -158 -87 -243 -31 -85 -68
-188 -82 -228 -14 -41 -29 -70 -34 -65 -7 8 -29 66 -159 433 -32 91 -61 173
-65 182 -5 13 -17 17 -52 15 -25 -1 -83 -3 -130 -5z"/>
<path d="M7202 2953 l3 -478 110 0 110 0 5 90 c4 76 9 95 29 120 14 18 25 25
28 18 2 -7 39 -62 81 -123 l77 -110 133 0 c72 0 132 2 132 4 0 2 -58 82 -130
176 -71 95 -130 174 -130 176 0 2 42 53 93 113 103 119 147 174 147 184 0 4
-55 7 -123 7 -144 0 -124 13 -256 -163 l-81 -109 0 286 0 286 -115 0 -115 0 2
-477z"/>
<path d="M3239 3397 c-42 -32 -53 -123 -21 -165 25 -32 92 -41 128 -18 86 57
47 197 -55 196 -20 0 -43 -6 -52 -13z"/>
<path d="M6087 3399 c-24 -14 -47 -62 -47 -99 0 -93 99 -143 168 -85 22 18 29
31 24 47 -4 16 -2 19 9 13 12 -8 12 -6 1 8 -8 9 -11 25 -7 37 10 31 -3 59 -35
75 -33 17 -87 19 -113 4z"/>
<path d="M4517 3215 c-4 -88 -7 -292 -7 -452 l0 -293 204 0 c222 0 282 7 364
45 171 78 271 234 272 420 0 147 -48 264 -149 358 -48 45 -70 59 -56 37 8 -14
-8 -13 -22 1 -8 8 -104 14 -292 18 -244 5 -282 4 -287 -9 -5 -11 -8 -9 -14 10
-3 14 -9 -47 -13 -135z m671 79 l27 -27 -32 22 c-18 12 -33 24 -33 27 0 10 13
2 38 -22z m-266 -94 c154 -43 233 -218 164 -365 -45 -97 -117 -137 -251 -139
l-90 -1 -3 258 -2 257 72 0 c40 0 90 -5 110 -10z"/>
<path d="M3685 3280 c-27 -5 -71 -9 -97 -9 l-48 -1 0 -69 0 -70 -42 -3 -43 -3
-3 -87 -3 -87 43 -3 43 -3 5 -180 c5 -167 7 -183 28 -218 49 -78 156 -110 256
-78 42 14 42 15 16 112 -9 33 -15 38 -42 41 -51 5 -58 31 -56 188 l3 135 58 3
c65 3 63 -1 51 121 l-7 61 -48 0 -49 0 0 80 c0 44 -3 79 -7 79 -5 -1 -30 -5
-58 -9z"/>
<path d="M3952 3119 c-35 -11 -65 -25 -68 -32 -8 -21 42 -152 57 -150 8 1 32
9 54 17 48 18 118 20 148 5 32 -17 77 -61 77 -76 0 -16 1 -16 -50 2 -89 31
-206 10 -268 -48 -82 -76 -86 -232 -9 -316 60 -65 197 -82 295 -36 49 23 52
23 52 5 0 -16 10 -19 83 -22 45 -2 88 -2 95 0 9 3 12 58 12 231 0 219 -1 228
-25 279 -28 61 -61 94 -130 130 -44 23 -63 27 -155 29 -81 1 -119 -3 -168 -18z
m239 -368 c39 -39 39 -78 -2 -117 -24 -23 -39 -29 -76 -29 -37 0 -49 5 -70 29
-20 24 -24 36 -19 65 12 80 109 110 167 52z"/>
<path d="M6760 3129 c-24 -5 -66 -22 -93 -39 -27 -16 -50 -30 -53 -30 -2 0 -4
13 -4 29 0 37 -11 41 -126 41 l-94 0 2 -332 3 -333 75 -3 c41 -2 89 0 107 3
l31 6 4 172 c3 162 4 175 28 217 19 34 36 49 71 64 56 22 86 17 132 -23 l32
-29 5 -199 5 -198 110 0 110 0 0 225 0 225 -30 60 c-57 113 -184 171 -315 144z"/>
<path d="M3180 2801 c0 -318 1 -330 19 -336 21 -6 168 -4 189 3 9 3 12 79 12
333 l0 329 -110 0 -110 0 0 -329z"/>
<path d="M5425 2878 c-4 -139 -5 -287 -3 -328 l3 -75 96 -5 c53 -3 104 -4 112
-2 13 3 16 30 19 165 3 143 6 167 25 203 40 74 123 113 246 114 l57 0 0 90 0
90 -80 0 c-89 0 -158 -21 -216 -65 l-34 -26 0 30 c0 59 -3 61 -115 61 l-103 0
-7 -252z"/>
<path d="M6040 2800 l0 -330 109 0 c90 0 110 3 115 16 8 21 8 355 -1 517 l-6
127 -109 0 -108 0 0 -330z"/>
<path d="M3440 2061 l0 -131 25 0 c23 0 25 3 25 50 l0 50 55 0 55 0 0 -50 c0
-47 2 -50 25 -50 l25 0 0 130 0 130 -25 0 c-24 0 -25 -3 -25 -55 l0 -55 -54 0
-55 0 -3 53 c-3 45 -6 52 -25 55 -23 3 -23 3 -23 -127z"/>
<path d="M3757 2183 c-9 -8 -9 -131 -1 -200 l7 -53 88 0 c88 0 89 0 89 25 0
24 -2 25 -65 25 -63 0 -65 1 -65 25 0 24 3 25 56 25 54 0 55 1 52 27 -3 26 -5
27 -55 24 -51 -2 -53 -1 -53 23 0 25 2 26 65 26 l65 0 0 30 0 30 -88 0 c-49 0
-92 -3 -95 -7z"/>
<path d="M4073 2071 c-29 -66 -53 -124 -53 -130 0 -6 11 -11 25 -11 17 0 29 8
37 25 10 23 17 25 70 25 53 0 59 -2 68 -25 7 -18 17 -25 35 -25 14 0 25 6 25
13 0 6 -22 64 -49 127 -45 106 -51 115 -77 118 -28 3 -31 -1 -81 -117z m117
-38 c0 -9 -15 -13 -41 -13 -29 0 -39 4 -35 13 3 6 11 31 18 55 l12 43 23 -43
c12 -24 22 -49 23 -55z"/>
<path d="M4365 2128 c-4 -35 -5 -92 -3 -128 l3 -65 88 -3 87 -3 0 26 c0 24 -2
25 -60 25 l-60 0 0 105 c0 104 0 105 -24 105 -23 0 -25 -5 -31 -62z"/>
<path d="M4570 2160 c0 -28 3 -30 35 -30 l35 0 0 -100 0 -100 30 0 29 0 3 103
3 102 38 3 c28 2 37 8 37 21 0 15 -12 19 -77 25 -131 11 -133 10 -133 -24z"/>
<path d="M4868 2183 c-2 -4 -4 -62 -3 -128 l0 -120 28 -3 c26 -3 27 -2 27 47
l0 51 55 0 55 0 0 -50 c0 -47 2 -50 25 -50 l25 0 0 130 0 130 -25 0 c-24 0
-25 -3 -25 -55 l0 -55 -54 0 -55 0 -3 53 c-3 45 -6 52 -25 55 -11 2 -23 0 -25
-5z"/>
<path d="M5327 2088 c-9 -175 -16 -158 65 -158 112 0 158 37 158 129 0 86 -58
131 -171 131 l-47 0 -5 -102z m157 20 c22 -31 20 -70 -5 -102 -16 -20 -29 -26
-60 -26 l-39 0 0 75 0 75 44 0 c35 0 48 -5 60 -22z"/>
<path d="M5658 2184 c-5 -4 -8 -63 -8 -131 l0 -123 25 0 c22 0 25 4 25 35 0
32 3 35 28 35 21 0 32 -8 46 -35 16 -29 25 -35 53 -35 36 0 36 1 2 51 -18 26
-18 27 6 49 35 32 33 80 -2 120 -25 26 -37 31 -98 36 -38 3 -73 3 -77 -2z
m136 -70 c19 -18 19 -20 6 -45 -8 -14 -21 -19 -55 -19 l-45 0 0 40 c0 40 0 40
39 40 23 0 46 -7 55 -16z"/>
<path d="M5950 2060 l0 -130 25 0 25 0 0 130 0 130 -25 0 -25 0 0 -130z"/>
<path d="M6110 2060 l0 -130 25 0 c24 0 25 3 25 60 0 41 4 60 13 60 6 0 34
-27 60 -60 33 -41 55 -60 70 -60 21 0 22 3 24 130 l2 130 -29 0 -29 0 -3 -77
-3 -77 -60 76 c-88 112 -95 108 -95 -52z"/>
<path d="M6430 2059 l0 -130 27 3 c23 3 27 9 30 38 8 76 16 77 66 10 32 -43
42 -50 72 -50 19 0 35 4 35 8 0 4 -16 24 -36 43 -20 18 -45 47 -56 62 l-21 29
59 59 58 59 -35 0 c-29 0 -43 -9 -84 -50 -27 -27 -53 -50 -57 -50 -4 0 -8 23
-8 50 0 47 -2 50 -25 50 l-25 0 0 -131z"/>
</g>
</svg>
